<svg width="55" height="35" viewBox="0 0 55 35" fill="none" xmlns="http://www.w3.org/2000/svg">
<path d="M0.443182 35V0.0909081H22.8068V5.39205H6.76705V14.8693H21.2727V20.1705H6.76705V35H0.443182Z" fill="white"/>
<path d="M28.5682 35V0.0909081H41.9318C44.4545 0.0909081 46.5511 0.488635 48.2216 1.28409C49.9034 2.06818 51.1591 3.14205 51.9886 4.50568C52.8295 5.86932 53.25 7.41477 53.25 9.14205C53.25 10.5625 52.9773 11.7784 52.4318 12.7898C51.8864 13.7898 51.1534 14.6023 50.233 15.2273C49.3125 15.8523 48.2841 16.3011 47.1477 16.5739V16.9148C48.3864 16.983 49.5739 17.3636 50.7102 18.0568C51.858 18.7386 52.7955 19.7045 53.5227 20.9545C54.25 22.2045 54.6136 23.7159 54.6136 25.4886C54.6136 27.2955 54.1761 28.9205 53.3011 30.3636C52.4261 31.7955 51.108 32.9261 49.3466 33.7557C47.5852 34.5852 45.3693 35 42.6989 35H28.5682ZM34.892 29.7159H41.6932C43.9886 29.7159 45.642 29.2784 46.6534 28.4034C47.6761 27.517 48.1875 26.3807 48.1875 24.9943C48.1875 23.9602 47.9318 23.0284 47.4205 22.1989C46.9091 21.358 46.1818 20.6989 45.2386 20.2216C44.2955 19.733 43.1705 19.4886 41.8636 19.4886H34.892V29.7159ZM34.892 14.9375H41.1477C42.2386 14.9375 43.2216 14.7386 44.0966 14.3409C44.9716 13.9318 45.6591 13.358 46.1591 12.6193C46.6705 11.8693 46.9261 10.983 46.9261 9.96023C46.9261 8.60795 46.4489 7.49432 45.4943 6.61932C44.5511 5.74432 43.1477 5.30682 41.2841 5.30682H34.892V14.9375Z" fill="#FDD835"/>
</svg>
