<svg width="700" height="700" viewBox="0 0 700 700" fill="none" xmlns="http://www.w3.org/2000/svg">
<g clip-path="url(#clip0_36_13)">
<mask id="path-1-inside-1_36_13" fill="white">
<path d="M0 0H700V700H0V0Z"/>
</mask>
<g filter="url(#filter0_d_36_13)">
<path d="M455.679 692.173L324.548 410.281C324.511 409.591 324.332 408.923 324.027 408.335C323.721 407.748 323.299 407.259 322.798 406.912C322.223 406.519 321.566 406.33 320.904 406.366C320.883 406.364 320.861 406.366 320.84 406.364C320.818 406.366 320.797 406.364 320.776 406.366C319.879 406.316 319 406.682 318.324 407.386C317.648 408.091 317.226 409.08 317.147 410.146L178.168 692.173C177.936 692.651 177.786 693.178 177.725 693.726C177.665 694.273 177.695 694.829 177.815 695.363C177.934 695.896 178.141 696.396 178.423 696.834C178.705 697.272 179.056 697.64 179.457 697.916C179.858 698.192 180.301 698.371 180.76 698.443C181.219 698.515 181.685 698.478 182.133 698.335C182.58 698.192 182.999 697.945 183.366 697.609C183.733 697.273 184.042 696.854 184.273 696.375L320.746 419.435L449.574 696.375C449.805 696.854 450.113 697.273 450.48 697.609C450.848 697.945 451.267 698.192 451.714 698.335C452.161 698.478 452.628 698.515 453.087 698.443C453.546 698.371 453.989 698.192 454.39 697.916C454.791 697.64 455.142 697.272 455.424 696.834C455.706 696.396 455.912 695.896 456.032 695.363C456.152 694.829 456.182 694.273 456.122 693.726C456.061 693.178 455.91 692.651 455.679 692.173Z" fill="#212121"/>
</g>
<path d="M299.111 643.808L313.933 639.753L307.87 569.659L285.994 575.643L299.111 643.808Z" fill="#FFB6B6"/>
<path d="M310.571 609.947L289.477 615.716L282.733 600.001L282.351 599.444C279.359 595.065 277.699 589.608 277.64 583.961L260.108 528.666L258.674 527.854C257.565 527.225 256.582 526.321 255.789 525.203C254.996 524.084 254.413 522.777 254.077 521.369C253.742 519.96 253.663 518.482 253.844 517.034C254.026 515.586 254.465 514.201 255.132 512.971L253.276 507.118L200.904 507.232L200.852 507.215L136.54 485.705L143.293 437.71L161.384 451.278C167.345 450.817 269.46 443.342 278.894 470.628C287.295 494.926 299.4 536.438 308.076 566.984C308.509 568.355 309.047 569.676 309.683 570.929C311.033 573.408 311.825 576.259 311.983 579.208C312.085 580.491 312.291 581.76 312.596 582.996C316.202 595.849 310.708 609.608 310.653 609.745L310.571 609.947Z" fill="#212121"/>
<path d="M294.104 637.947L298.923 636.629L315.982 622.36L327.821 628.723L327.822 628.723C333.521 627.165 339.505 628.369 344.459 632.072C349.413 635.774 352.931 641.671 354.238 648.465L354.399 649.298L299.194 664.399L294.104 637.947Z" fill="#212121"/>
<path d="M75.2613 639.521C76.7683 619.964 86.3762 600.384 101.786 593.448C96.1818 613.733 96.7757 635.728 103.463 655.541C106.065 663.171 109.626 671.334 107.583 679.203C106.313 684.099 102.985 687.935 99.2153 690.398C95.4458 692.862 91.223 694.128 87.0528 695.371L86.2483 696.218C79.0984 678.525 73.7544 659.079 75.2613 639.521Z" fill="#47AE55"/>
<path d="M101.951 593.81C93.2039 606.28 87.9745 621.718 87.0055 637.933C86.7449 641.419 86.9469 644.933 87.6039 648.344C88.334 651.642 89.7915 654.647 91.8251 657.047C93.6835 659.33 95.8062 661.408 97.1668 664.19C97.8456 665.626 98.2621 667.217 98.3889 668.859C98.5158 670.5 98.3502 672.155 97.903 673.715C96.8734 677.637 94.7236 680.883 92.5287 683.971C90.0916 687.399 87.5148 690.914 86.5597 695.372C86.444 695.912 85.7478 695.666 85.8634 695.127C87.525 687.371 93.6636 682.767 96.4607 675.731C97.7659 672.448 98.2493 668.677 96.8523 665.318C95.6307 662.38 93.4433 660.235 91.5448 657.943C89.5322 655.637 88.0239 652.778 87.1515 649.616C86.3509 646.256 86.0358 642.758 86.2196 639.271C86.5284 631.414 87.8714 623.664 90.1994 616.304C92.8173 607.887 96.6235 600.066 101.453 593.18C101.752 592.753 102.248 593.387 101.951 593.81Z" fill="white"/>
<path d="M87.0597 632.69C84.8001 632.127 82.782 630.624 81.3657 628.451C79.9495 626.277 79.2273 623.574 79.3282 620.824C79.3332 620.712 79.3745 620.607 79.4434 620.53C79.5122 620.454 79.6033 620.412 79.6975 620.414C79.7916 620.416 79.8814 620.462 79.948 620.541C80.0145 620.621 80.0526 620.728 80.0543 620.84C79.9563 623.4 80.6292 625.918 81.9515 627.939C83.2738 629.96 85.1584 631.35 87.2651 631.86C87.7228 631.971 87.5148 632.801 87.0597 632.69Z" fill="white"/>
<path d="M90.7549 656.038C94.7268 652.999 97.5924 648.288 98.7803 642.843C98.8976 642.303 99.5938 642.549 99.4766 643.088C98.2316 648.751 95.2412 653.647 91.1021 656.798C90.7074 657.098 90.3624 656.336 90.7549 656.038Z" fill="white"/>
<path d="M93.5126 608.681C94.3488 609.116 95.2625 609.297 96.1718 609.207C97.081 609.117 97.9573 608.759 98.7219 608.166C99.1132 607.86 99.4578 608.622 99.069 608.926C98.2217 609.577 97.2536 609.971 96.2492 610.073C95.2448 610.175 94.2348 609.982 93.3073 609.511C93.2167 609.476 93.1409 609.4 93.0953 609.301C93.0497 609.201 93.0377 609.084 93.0618 608.974C93.0894 608.864 93.1523 608.772 93.2367 608.717C93.3211 608.662 93.4203 608.649 93.5126 608.681Z" fill="white"/>
<path d="M150.216 626.421C149.977 626.621 149.737 626.82 149.497 627.026C146.285 629.725 143.262 632.73 140.458 636.012C140.238 636.262 140.018 636.519 139.804 636.775C133.12 644.768 127.738 654.172 123.933 664.507C122.421 668.622 121.175 672.867 120.204 677.207C118.864 683.201 117.81 689.827 114.971 694.796C114.679 695.319 114.361 695.819 114.018 696.294L87.177 697.322C87.115 697.288 87.0529 697.261 86.9906 697.227L85.9205 697.327C85.9575 697.099 85.9999 696.863 86.0369 696.635C86.0579 696.503 86.0848 696.37 86.1058 696.238C86.1217 696.15 86.1379 696.061 86.148 695.98C86.1532 695.951 86.1587 695.922 86.164 695.899C86.1741 695.819 86.1907 695.745 86.201 695.671C86.4352 694.354 86.6776 693.036 86.9281 691.719C86.9279 691.711 86.928 691.711 86.9337 691.704C88.7623 681.639 91.5858 671.869 95.3449 662.598C95.4602 662.323 95.5751 662.041 95.7026 661.766C97.4484 657.659 99.4727 653.729 101.755 650.015C103.011 647.986 104.352 646.034 105.773 644.167C109.452 639.351 113.744 635.255 118.491 632.029C127.954 625.6 139.037 622.851 149.425 626.159C149.691 626.244 149.951 626.329 150.216 626.421Z" fill="#47AE55"/>
<path d="M150.167 626.83C136.887 630.507 124.915 639.08 115.954 651.331C113.985 653.927 112.372 656.878 111.175 660.073C110.092 663.231 109.738 666.676 110.15 670.052C110.481 673.209 111.127 676.392 110.808 679.59C110.625 681.224 110.154 682.793 109.427 684.195C108.699 685.597 107.731 686.799 106.586 687.724C103.784 690.116 100.428 691.165 97.1167 692.054C93.4398 693.042 89.6075 693.999 86.5939 696.872C86.2287 697.221 85.797 696.525 86.1616 696.177C91.4047 691.177 98.631 691.908 104.417 688.298C107.117 686.614 109.407 683.949 109.988 680.264C110.496 677.042 109.833 673.759 109.474 670.566C109.032 667.28 109.271 663.915 110.171 660.764C111.228 657.506 112.743 654.487 114.651 651.835C118.865 645.783 123.851 640.559 129.426 636.354C135.766 631.513 142.754 628.001 150.088 625.969C150.542 625.844 150.618 626.705 150.167 626.83Z" fill="white"/>
<path d="M118.645 647.183C117.125 645.112 116.272 642.463 116.239 639.711C116.206 636.959 116.994 634.282 118.463 632.159C118.762 631.731 119.334 632.264 119.035 632.693C117.664 634.667 116.93 637.16 116.965 639.723C117.001 642.286 117.803 644.749 119.228 646.668C119.537 647.086 118.952 647.599 118.645 647.183Z" fill="white"/>
<path d="M109.806 668.478C114.511 668.903 119.178 667.199 122.876 663.704C123.242 663.357 123.674 664.053 123.308 664.399C119.454 668.027 114.595 669.79 109.699 669.334C109.232 669.29 109.342 668.434 109.806 668.478Z" fill="white"/>
<path d="M135.92 632.646C136.368 633.594 137.007 634.394 137.778 634.975C138.549 635.556 139.43 635.899 140.34 635.974C140.807 636.01 140.697 636.866 140.233 636.83C139.228 636.742 138.256 636.361 137.403 635.722C136.549 635.082 135.84 634.203 135.337 633.161C135.283 633.068 135.26 632.953 135.274 632.841C135.288 632.728 135.338 632.627 135.413 632.556C135.49 632.488 135.587 632.46 135.682 632.476C135.777 632.493 135.863 632.554 135.92 632.646Z" fill="white"/>
<path d="M514.406 639.521C512.899 619.964 503.291 600.384 487.881 593.448C493.486 613.733 492.892 635.728 486.205 655.541C483.602 663.171 480.042 671.334 482.084 679.203C483.355 684.099 486.683 687.935 490.452 690.398C494.222 692.862 498.445 694.128 502.615 695.371L503.419 696.218C510.569 678.525 515.913 659.079 514.406 639.521Z" fill="#47AE55"/>
<path d="M487.717 593.81C496.464 606.28 501.693 621.718 502.662 637.933C502.923 641.419 502.721 644.933 502.064 648.344C501.334 651.642 499.876 654.647 497.842 657.047C495.984 659.33 493.861 661.408 492.501 664.19C491.822 665.626 491.406 667.217 491.279 668.859C491.152 670.5 491.317 672.155 491.765 673.715C492.794 677.637 494.944 680.883 497.139 683.971C499.576 687.399 502.153 690.914 503.108 695.372C503.224 695.912 503.92 695.666 503.804 695.127C502.142 687.371 496.004 682.767 493.207 675.731C491.902 672.448 491.418 668.677 492.815 665.318C494.037 662.38 496.224 660.235 498.123 657.943C500.135 655.637 501.644 652.778 502.516 649.616C503.317 646.256 503.632 642.758 503.448 639.271C503.139 631.414 501.796 623.664 499.468 616.304C496.85 607.887 493.044 600.066 488.214 593.18C487.915 592.753 487.419 593.387 487.717 593.81Z" fill="white"/>
<path d="M502.608 632.69C504.867 632.127 506.886 630.624 508.302 628.451C509.718 626.277 510.44 623.574 510.339 620.824C510.334 620.712 510.293 620.607 510.224 620.53C510.155 620.454 510.064 620.412 509.97 620.414C509.876 620.416 509.786 620.462 509.72 620.541C509.653 620.62 509.615 620.728 509.613 620.84C509.711 623.4 509.038 625.918 507.716 627.939C506.394 629.96 504.509 631.35 502.402 631.86C501.945 631.971 502.153 632.801 502.608 632.69Z" fill="white"/>
<path d="M498.913 656.038C494.941 652.999 492.075 648.288 490.887 642.843C490.77 642.303 490.074 642.549 490.191 643.088C491.436 648.751 494.426 653.647 498.565 656.798C498.96 657.098 499.305 656.336 498.913 656.038Z" fill="white"/>
<path d="M496.155 608.681C495.319 609.116 494.405 609.297 493.496 609.207C492.587 609.117 491.71 608.759 490.946 608.166C490.554 607.86 490.21 608.622 490.598 608.926C491.446 609.577 492.414 609.971 493.418 610.073C494.423 610.175 495.433 609.982 496.36 609.511C496.451 609.476 496.527 609.4 496.572 609.301C496.618 609.201 496.63 609.084 496.606 608.974C496.578 608.864 496.515 608.772 496.431 608.717C496.346 608.662 496.247 608.649 496.155 608.681Z" fill="white"/>
<path d="M439.451 626.421C439.691 626.621 439.931 626.82 440.171 627.026C443.383 629.725 446.405 632.73 449.209 636.012C449.43 636.262 449.65 636.519 449.863 636.775C456.548 644.768 461.93 654.172 465.735 664.507C467.246 668.622 468.492 672.867 469.463 677.207C470.804 683.201 471.857 689.827 474.697 694.796C474.988 695.319 475.306 695.819 475.65 696.294L502.491 697.322C502.553 697.288 502.615 697.261 502.677 697.227L503.747 697.327C503.71 697.099 503.668 696.863 503.631 696.635C503.61 696.503 503.583 696.37 503.562 696.238C503.546 696.15 503.53 696.061 503.52 695.98C503.514 695.951 503.509 695.922 503.504 695.899C503.493 695.819 503.477 695.745 503.467 695.671C503.232 694.354 502.99 693.036 502.739 691.719C502.74 691.711 502.74 691.711 502.734 691.704C500.905 681.639 498.082 671.869 494.323 662.598C494.207 662.323 494.093 662.041 493.965 661.766C492.219 657.659 490.195 653.729 487.912 650.015C486.657 647.986 485.316 646.034 483.895 644.167C480.216 639.351 475.924 635.255 471.177 632.029C461.714 625.6 450.631 622.851 440.243 626.159C439.977 626.244 439.717 626.329 439.451 626.421Z" fill="#47AE55"/>
<path d="M439.501 626.83C452.781 630.507 464.752 639.08 473.714 651.331C475.682 653.927 477.295 656.878 478.493 660.073C479.576 663.231 479.929 666.676 479.517 670.052C479.186 673.209 478.541 676.392 478.859 679.59C479.042 681.224 479.513 682.793 480.241 684.195C480.968 685.597 481.936 686.799 483.081 687.724C485.883 690.116 489.239 691.165 492.551 692.054C496.228 693.042 500.06 693.999 503.074 696.872C503.439 697.22 503.871 696.525 503.506 696.177C498.263 691.177 491.037 691.908 485.251 688.298C482.551 686.614 480.26 683.949 479.68 680.264C479.172 677.042 479.835 673.759 480.193 670.566C480.636 667.28 480.397 663.915 479.497 660.764C478.439 657.506 476.924 654.487 475.017 651.835C470.803 645.783 465.817 640.559 460.242 636.354C453.902 631.513 446.913 628.001 439.579 625.969C439.126 625.844 439.05 626.705 439.501 626.83Z" fill="white"/>
<path d="M471.023 647.183C472.543 645.112 473.395 642.463 473.429 639.711C473.462 636.959 472.674 634.282 471.205 632.159C470.906 631.731 470.334 632.264 470.633 632.693C472.004 634.667 472.738 637.16 472.702 639.723C472.667 642.286 471.865 644.749 470.44 646.668C470.131 647.086 470.715 647.599 471.023 647.183Z" fill="white"/>
<path d="M479.862 668.478C475.157 668.903 470.49 667.199 466.791 663.704C466.425 663.357 465.993 664.053 466.359 664.399C470.213 668.027 475.073 669.79 479.969 669.334C480.435 669.29 480.326 668.434 479.862 668.478Z" fill="white"/>
<path d="M453.747 632.646C453.299 633.594 452.661 634.394 451.89 634.975C451.118 635.556 450.238 635.899 449.328 635.974C448.861 636.01 448.97 636.866 449.434 636.83C450.44 636.742 451.411 636.361 452.265 635.722C453.118 635.082 453.828 634.203 454.331 633.161C454.385 633.068 454.407 632.953 454.393 632.841C454.379 632.728 454.33 632.627 454.255 632.556C454.178 632.488 454.081 632.46 453.986 632.476C453.891 632.493 453.805 632.554 453.747 632.646Z" fill="white"/>
<path d="M700 698.889C699.999 699.183 699.901 699.465 699.726 699.674C699.552 699.882 699.315 699.999 699.068 700H0.932347C0.685138 700 0.448052 699.883 0.273249 699.674C0.098446 699.466 0.000244141 699.183 0.000244141 698.889C0.000244141 698.594 0.098446 698.311 0.273249 698.103C0.448052 697.894 0.685138 697.777 0.932347 697.777H699.068C699.315 697.778 699.552 697.895 699.726 698.104C699.901 698.312 699.999 698.594 700 698.889Z" fill="#212121"/>
<path d="M449.689 268.969C451.636 268.969 453.214 267.087 453.214 264.766C453.214 262.445 451.636 260.563 449.689 260.563C447.742 260.563 446.164 262.445 446.164 264.766C446.164 267.087 447.742 268.969 449.689 268.969Z" fill="#FDD835"/>
<path d="M405.552 297.138L453.071 261.542C453.501 261.22 453.981 261.005 454.483 260.91C454.984 260.816 455.496 260.843 455.989 260.991C456.481 261.139 456.943 261.405 457.347 261.772C457.751 262.138 458.088 262.599 458.338 263.126C458.589 263.652 458.747 264.234 458.803 264.836C458.86 265.437 458.813 266.046 458.667 266.626C458.521 267.205 458.277 267.744 457.952 268.208C457.626 268.672 457.225 269.053 456.772 269.327L406.745 299.647C406.467 299.815 406.146 299.849 405.847 299.742C405.549 299.635 405.297 299.395 405.143 299.072C404.989 298.749 404.946 298.367 405.022 298.007C405.099 297.647 405.288 297.335 405.552 297.138Z" fill="#E4E4E4"/>
<path d="M310.219 373.784C309.845 373.12 309.649 372.336 309.659 371.537C309.669 370.737 309.883 369.96 310.273 369.31C311.078 368.026 312.148 367.014 313.38 366.373C315.923 364.83 318.661 363.798 321.486 363.318C323.632 362.955 325.975 362.839 327.64 361.184C329.294 359.539 330.216 356.464 332.359 356.207C334.431 355.959 336.024 358.663 338.102 358.831C340.662 359.038 342.339 355.464 344.831 354.731C346.499 354.241 348.214 355.107 349.778 355.953L359.168 361.032L363.98 363.635C365.661 364.544 367.557 365.769 367.874 367.937C368.311 370.916 365.532 373.018 363.156 374.076C346.19 381.541 327.546 381.544 310.578 374.084" fill="#FFB74D"/>
<path d="M324.365 428.669C392.498 428.669 447.731 419.261 447.731 407.655C447.731 396.05 392.498 386.642 324.365 386.642C256.231 386.642 200.998 396.05 200.998 407.655C200.998 419.261 256.231 428.669 324.365 428.669Z" fill="#212121"/>
<path d="M574.622 537.937H490.028C486.134 537.937 482.978 541.7 482.978 546.342C482.978 550.984 486.134 554.748 490.028 554.748H574.622C578.515 554.748 581.671 550.984 581.671 546.342C581.671 541.7 578.515 537.937 574.622 537.937Z" fill="#212121"/>
<g filter="url(#filter1_d_36_13)">
<path d="M615.619 388.081L587.679 546.333L594.956 586.837L608.694 663.278V697.637C608.696 697.684 608.693 697.731 608.687 697.777C608.682 698.537 608.565 699.289 608.342 700H597.298C597.075 699.289 596.958 698.537 596.953 697.777C596.947 697.731 596.944 697.684 596.945 697.637V664.754L584.476 595.373L581.953 581.364L577.073 554.215L575.664 546.352V546.342L577.058 538.46L578.131 532.38L604.12 385.204C604.278 384.303 604.583 383.448 605.018 382.688C605.453 381.928 606.01 381.277 606.656 380.773C607.302 380.27 608.025 379.923 608.783 379.753C609.542 379.582 610.321 379.592 611.077 379.781C611.832 379.97 612.549 380.334 613.186 380.854C613.823 381.373 614.368 382.038 614.79 382.808C615.212 383.579 615.502 384.442 615.644 385.346C615.787 386.251 615.778 387.18 615.619 388.081Z" fill="#212121"/>
</g>
<g filter="url(#filter2_d_36_13)">
<path d="M495.902 546.342V697.637C495.904 697.684 495.901 697.731 495.895 697.777C495.89 698.537 495.773 699.289 495.55 700H484.506C484.282 699.289 484.166 698.537 484.161 697.777C484.155 697.731 484.152 697.684 484.153 697.637V546.342C484.153 544.485 484.772 542.703 485.874 541.39C486.975 540.076 488.47 539.338 490.028 539.338C491.586 539.338 493.08 540.076 494.182 541.39C495.283 542.703 495.902 544.485 495.902 546.342Z" fill="#212121"/>
</g>
<g filter="url(#filter3_d_36_13)">
<path d="M504.127 521.127H560.523C566.132 521.127 571.511 523.783 575.477 528.512C579.443 533.241 581.671 539.655 581.671 546.342H482.978C482.978 539.655 485.206 533.241 489.172 528.512C493.139 523.783 498.518 521.127 504.127 521.127Z" fill="#212121"/>
</g>
<g filter="url(#filter4_d_36_13)">
<path d="M588.721 595.373H490.028C488.47 595.373 486.975 594.635 485.874 593.322C484.772 592.008 484.153 590.226 484.153 588.369C484.153 586.511 484.772 584.729 485.874 583.416C486.975 582.102 488.47 581.364 490.028 581.364H588.721C590.279 581.364 591.773 582.102 592.875 583.416C593.976 584.729 594.595 586.511 594.595 588.369C594.595 590.226 593.976 592.008 592.875 593.322C591.773 594.635 590.279 595.373 588.721 595.373Z" fill="#212121"/>
</g>
<path d="M129.649 555.002H229.196C233.09 555.002 236.246 551.239 236.246 546.597V544.05C236.246 539.408 233.09 535.645 229.196 535.645H129.649C125.755 535.645 122.599 539.408 122.599 544.05V546.597C122.599 551.239 125.755 555.002 129.649 555.002Z" fill="#212121"/>
<g filter="url(#filter5_d_36_13)">
<path d="M128.623 545.436L126.822 554.29L120.211 586.716L117.36 600.724L104.122 665.706V693.901C104.126 695.282 103.782 696.632 103.136 697.777C102.627 698.703 101.936 699.467 101.123 700H95.3731C94.5597 699.467 93.8685 698.703 93.3602 697.777C92.7136 696.632 92.3697 695.282 92.3731 693.901V664.025L107.083 591.834L116.577 545.212L84.3839 362.865C84.2246 361.965 84.2156 361.036 84.3574 360.132C84.4993 359.228 84.7893 358.366 85.2107 357.595C85.6321 356.825 86.1768 356.161 86.8136 355.642C87.4503 355.122 88.1667 354.758 88.9217 354.569C89.6767 354.38 90.4555 354.37 91.2137 354.54C91.9718 354.71 92.6944 355.057 93.3402 355.56C93.9859 356.064 94.5421 356.714 94.9769 357.474C95.4118 358.233 95.7168 359.088 95.8745 359.988L125.631 528.495L127.002 536.265L128.6 545.324L128.623 545.436Z" fill="#212121"/>
</g>
<g filter="url(#filter6_d_36_13)">
<path d="M234.006 545.324V693.902C234.009 695.282 233.665 696.632 233.019 697.777C232.51 698.703 231.819 699.467 231.006 700H225.248C224.439 699.464 223.751 698.701 223.243 697.777C222.597 696.632 222.253 695.282 222.256 693.902V545.324C222.256 543.467 222.875 541.685 223.977 540.372C225.079 539.058 226.573 538.32 228.131 538.32C229.689 538.32 231.183 539.058 232.285 540.372C233.387 541.685 234.006 543.467 234.006 545.324Z" fill="#212121"/>
</g>
<path d="M236.246 545.324H122.599V541.503C122.599 538.192 123.146 534.913 124.209 531.853C125.272 528.794 126.83 526.014 128.793 523.673C130.757 521.331 133.089 519.474 135.655 518.207C138.22 516.939 140.97 516.287 143.748 516.287H215.097C220.706 516.287 226.085 518.944 230.052 523.673C234.018 528.402 236.246 534.815 236.246 541.503L236.246 545.324Z" fill="#212121"/>
<g filter="url(#filter7_d_36_13)">
<path d="M228.128 600.722H114.482C112.924 600.722 111.429 599.984 110.328 598.67C109.226 597.357 108.607 595.575 108.607 593.717C108.607 591.86 109.226 590.078 110.328 588.764C111.429 587.451 112.924 586.713 114.482 586.713H228.128C229.686 586.713 231.18 587.451 232.282 588.764C233.384 590.078 234.003 591.86 234.003 593.717C234.003 595.575 233.384 597.357 232.282 598.67C231.18 599.984 229.686 600.722 228.128 600.722Z" fill="#212121"/>
</g>
<path d="M374.182 661.822L361.835 654.782L378.796 593.247L397.019 603.637L374.182 661.822Z" fill="#9E616A"/>
<path d="M457.859 656.249L444.582 660.154L425.346 599.593L444.942 593.827L457.859 656.249Z" fill="#9E616A"/>
<path d="M406.972 394.363C408.733 397.773 411.542 400.228 414.8 401.202C418.058 402.177 421.506 401.594 424.409 399.579C424.993 399.158 425.546 398.68 426.063 398.149L465.099 424.859L463.404 397.441L426.595 376.28C424.592 373.881 421.978 372.343 419.163 371.906C416.348 371.468 413.49 372.157 411.039 373.864C409.628 374.875 408.4 376.212 407.429 377.797C406.457 379.381 405.761 381.182 405.382 383.092C405.003 385.002 404.949 386.983 405.222 388.919C405.495 390.855 406.09 392.706 406.972 394.363Z" fill="#9E616A"/>
<path d="M448.317 414.801L455.217 419.815L486.206 442.347C488.242 443.866 490.509 444.891 492.877 445.364C495.245 445.838 497.668 445.75 500.008 445.106C502.347 444.462 504.558 443.275 506.512 441.612C508.467 439.949 510.127 437.843 511.399 435.414C513.693 430.907 514.505 425.545 513.677 420.366L499.904 338.319C499.395 335.098 498.309 332.046 496.72 329.372C495.131 326.697 493.076 324.464 490.696 322.823C488.316 321.183 485.667 320.175 482.931 319.867C480.194 319.56 477.434 319.961 474.839 321.043C470.477 322.87 466.863 326.61 464.733 331.502C462.602 336.393 462.114 342.069 463.369 347.375L477.771 405.602L455.694 393.33L448.317 414.801Z" fill="#E6E6E6"/>
<path d="M432.002 639.277L410.756 588.473L410.759 588.356L412.857 495.173C412.883 494.345 412.939 493.512 413.024 492.693C413.394 488.957 414.385 485.346 415.938 482.071C417.491 478.796 419.575 475.922 422.069 473.617C424.458 471.389 427.195 469.75 430.12 468.796C433.046 467.842 436.101 467.592 439.109 468.061L499.86 477.435L501.966 467.163L502.359 466.993L560.568 441.557L560.903 442.208C568.527 456.998 573.856 486.541 575.308 495.243L575.329 495.369C575.359 495.552 575.378 495.663 575.384 495.695C578.38 510.546 565.999 535.145 553.664 538.843C527.683 546.739 504.446 540.58 477.541 533.447C467.893 530.888 457.922 528.244 446.939 525.958L447.265 533.665C447.533 539.597 448.567 545.445 450.33 551.001C452.288 557.839 453.835 563.241 450.564 574.503L448.982 579.951C449.802 582.656 450.085 585.551 449.807 588.408C449.529 591.265 448.698 594.006 447.38 596.415L447.062 596.995L461.073 639.267L432.002 639.277Z" fill="#212121"/>
<path d="M397.095 616.809L371.76 614.002L380.735 579.776C382.588 557.429 387.255 535.542 394.579 514.853L406.822 480.259C406.85 479.489 406.905 478.714 406.984 477.955C407.354 474.219 408.345 470.608 409.898 467.333C411.451 464.058 413.535 461.184 416.029 458.88C418.418 456.652 421.155 455.014 424.08 454.06C427.005 453.106 430.061 452.856 433.068 453.324L493.729 462.684L496.371 436.244L554.596 426.954L554.862 427.471C565.039 447.214 571.501 462.67 575.196 476.113C575.381 476.798 575.546 477.498 575.687 478.195C578.704 493.145 571.172 508.302 558.898 511.983C527.618 521.491 490.003 521.227 440.548 511.148L416.613 579.062C414.325 585.549 411.493 591.743 408.159 597.55L397.095 616.809Z" fill="#212121"/>
<path d="M485.467 273.955C501.676 273.955 514.815 257.94 514.815 238.184C514.815 218.428 501.676 202.412 485.467 202.412C469.259 202.412 456.12 218.428 456.12 238.184C456.12 257.94 469.259 273.955 485.467 273.955Z" fill="#9E616A"/>
<path d="M493.941 463.933L489.73 445.946L488.695 437.074L482.643 437.315L470.764 404.624L466.151 396.004C465.21 394.823 464.358 393.687 463.594 392.597C458.787 386.118 454.932 378.718 452.193 370.708C450.274 364.953 449.147 358.866 448.856 352.683C447.995 334.418 454.452 315.093 468.599 293.608C468.367 292.848 468.212 292.057 468.138 291.253C467.885 288.643 468.507 286.019 469.868 283.953C471.229 281.887 473.219 280.545 475.405 280.219L489.049 278.393C490.11 278.249 491.185 278.359 492.21 278.715C493.235 279.072 494.19 279.668 495.021 280.468C495.887 281.297 496.607 282.322 497.138 283.486C497.669 284.649 498 285.927 498.113 287.244C498.296 289.282 497.959 291.339 497.148 293.146C504.103 294.199 510.655 297.621 516.019 303.003C521.383 308.385 525.332 315.497 527.39 323.488C535.554 341.66 542.062 360.823 546.801 380.649C547.735 384.533 547.319 388.534 546.916 392.403C546.545 395.977 546.161 399.673 546.807 403.357C547.464 407.104 549.045 410.862 550.719 414.841C552.636 419.399 554.618 424.111 555.154 428.915L555.192 429.252L493.941 463.933Z" fill="#FFB74D"/>
<path opacity="0.2" d="M452.555 370.531C455.282 378.495 459.116 385.853 463.894 392.297C464.712 393.462 465.577 394.607 466.481 395.753L471.124 404.438C488.237 389.144 502.102 328.924 502.102 328.924L482.794 324.445L452.555 370.531Z" fill="black"/>
<path d="M440.866 277.297C442.557 280.76 443.047 284.872 442.234 288.76C441.42 292.648 439.366 296.004 436.509 298.113C435.923 298.531 435.308 298.891 434.672 299.188L436.039 352.827L416.557 338.205L418.246 289.51C417.417 286.269 417.511 282.793 418.514 279.623C419.516 276.453 421.37 273.768 423.787 271.986C425.195 270.971 426.759 270.302 428.387 270.02C430.016 269.738 431.675 269.847 433.267 270.342C434.859 270.837 436.352 271.708 437.657 272.902C438.962 274.097 440.053 275.591 440.866 277.297Z" fill="#9E616A"/>
<path d="M437.751 332.58L416.327 336.212L417.248 389.111C417.302 392.885 418.163 396.579 419.752 399.844C421.34 403.109 423.602 405.835 426.323 407.763C429.648 410.095 433.517 411.076 437.349 410.557C441.182 410.038 444.768 408.048 447.57 404.887L498.15 346.88C501.709 342.854 503.839 337.356 504.101 331.516C504.364 325.675 502.74 319.937 499.563 315.481C497.991 313.262 496.061 311.442 493.888 310.13C491.714 308.817 489.342 308.039 486.912 307.84C484.481 307.642 482.042 308.028 479.739 308.975C477.436 309.922 475.316 311.411 473.505 313.353C473.005 313.886 472.53 314.451 472.081 315.045L438.683 360.856L437.751 332.58Z" fill="#FFB74D"/>
<path d="M258.563 677.621L273.77 677.621L281.004 607.685L258.561 607.686L258.563 677.621Z" fill="#FFB6B6"/>
<path d="M172.369 274.993C189.131 274.993 202.72 258.791 202.72 238.805C202.72 218.819 189.131 202.617 172.369 202.617C155.607 202.617 142.018 218.819 142.018 238.805C142.018 258.791 155.607 274.993 172.369 274.993Z" fill="#FFB6B6"/>
<path d="M278.733 656.078H257.199L251.709 647.304L250.223 639.037L248.944 637.561C247.209 635.576 246.087 632.949 245.76 630.108C245.434 627.267 245.921 624.378 247.144 621.909L231.537 535.09C227.45 534.662 181.353 529.748 149.31 522.986C141.109 521.256 134.707 516.503 130.28 508.859C119.402 490.077 124.062 459.688 124.11 459.383L124.164 459.044L124.451 459.005L199.297 448.989L199.398 449.046C201.882 450.449 260.338 483.537 269.891 494.927C274.204 500.071 283.828 530.629 285.983 563.116C286.369 568.936 284.98 574.863 283.637 580.595C282.38 585.958 281.08 591.504 281.337 596.747C281.733 604.836 282.109 613.321 282.453 621.967C282.508 623.345 283.379 624.771 284.221 626.149C285.1 627.59 285.931 628.95 285.983 630.374C286.495 644.181 278.927 655.785 278.85 655.9L278.733 656.078Z" fill="#212121"/>
<path d="M283.636 335.192C282.006 334.66 280.297 334.561 278.631 334.902C276.965 335.243 275.382 336.015 273.994 337.165C272.605 338.314 271.445 339.812 270.595 341.554C269.744 343.296 269.225 345.238 269.072 347.246L243.854 356.643L244.906 376.308L280.363 362.441C283.208 362.523 285.979 361.357 288.152 359.166C290.324 356.974 291.747 353.908 292.15 350.55C292.554 347.191 291.91 343.772 290.341 340.942C288.771 338.111 286.386 336.065 283.636 335.192Z" fill="#FFB6B6"/>
<path d="M267.182 367.733L248.335 376.239L247.853 377.353C246.698 380.026 244.699 382.042 242.297 382.958C239.895 383.874 237.286 383.614 235.044 382.236L192.681 401.354C192.681 401.354 173.763 378.781 160.293 358.636L164.884 324.97C165.947 317.159 168.207 309.648 171.55 302.812C199.173 310.034 215.03 356.075 215.03 356.075L264.814 344.749L267.182 367.733Z" fill="#FFB74D"/>
<path d="M168.056 273.059C160.458 275.506 152.081 272.253 146.151 266.082C140.221 259.911 136.512 251.168 134.375 242.136C132.809 235.522 132.067 228.179 134.537 221.969C137.007 215.76 143.655 211.57 148.784 214.707C145.62 210.312 147.201 203.042 150.896 199.282C154.591 195.522 159.666 194.444 164.498 193.855C171.512 193 178.757 192.904 185.431 195.613C192.105 198.322 198.168 204.245 200.257 212.274C202.391 213.458 204.793 213.766 207.088 213.148C209.384 212.53 211.443 211.022 212.942 208.859C213.329 211.343 213.018 213.909 212.059 216.161C211.099 218.412 209.544 220.224 207.633 221.316L217.859 217.363C219.618 221.801 216.536 227.295 212.596 228.716C208.655 230.137 204.401 228.584 200.662 226.53C196.922 224.477 193.299 221.881 189.237 221.08C185.175 220.279 180.404 221.835 178.525 226.203C177.541 228.491 177.49 231.17 176.918 233.649C176.347 236.128 174.9 238.699 172.75 238.901C171.392 239.03 170.062 238.167 168.708 238.343C167.029 238.562 165.744 240.376 165.297 242.317C164.959 244.296 164.955 246.336 165.285 248.316L167.882 271.989" fill="#212121"/>
<path d="M130.454 513.184C130.449 513.184 130.443 513.183 130.437 513.181L130.197 513.133L130.128 512.854C129.255 509.355 128.145 505.773 127.071 502.309C125.49 497.511 124.154 492.603 123.072 487.612C122.221 482.841 121.631 478.008 121.305 473.145C121.006 469.615 120.696 465.964 120.169 462.37C119.935 460.774 120.822 459.263 121.679 457.802C122.473 456.447 123.224 455.167 123.067 453.956C122.906 452.718 121.754 451.358 120.64 450.043C119.42 448.602 118.157 447.111 117.979 445.542C115.546 424.136 114.413 402.549 114.59 380.949C114.842 351.063 115.974 330.692 117.957 320.402C123.288 292.733 147.916 287.683 151.771 287.06C152.182 285.756 152.813 284.567 153.626 283.566C154.439 282.566 155.415 281.776 156.495 281.245C157.575 280.713 158.735 280.453 159.903 280.48C161.071 280.506 162.222 280.819 163.284 281.399L180.783 290.95C184.333 292.895 187.509 295.688 190.115 299.158C192.721 302.628 194.7 306.7 195.93 311.12L198.53 320.569L199.832 384.001L192.616 428.669L206.715 453.884C131.572 503.074 130.696 513.184 130.454 513.184Z" fill="#FFB74D"/>
<path d="M250.38 670.574L255.324 670.574L274.627 661.214L284.973 670.573H284.975C290.821 670.573 296.428 673.342 300.562 678.272C304.697 683.201 307.019 689.886 307.02 696.857V697.711L250.381 697.714L250.38 670.574Z" fill="#212121"/>
<path d="M289.95 380.456C288.493 379.436 286.865 378.809 285.182 378.62C283.499 378.431 281.802 378.684 280.21 379.362C278.619 380.039 277.171 381.125 275.969 382.542C274.767 383.959 273.84 385.673 273.253 387.563L246.852 388.79L243.295 403.453L280.828 405.744C283.556 406.708 286.487 406.445 289.063 405.005C291.64 403.565 293.685 401.048 294.809 397.931C295.934 394.814 296.06 391.314 295.165 388.093C294.269 384.872 292.414 382.155 289.95 380.456Z" fill="#FFB6B6"/>
<path d="M268.264 407.325L241.145 406.922L237.712 406.866L182.537 406.038C182.537 406.038 167.554 388.994 154.507 371.447L156.336 355.677C158.12 340.2 164.559 326.022 174.455 315.784C193.141 330.671 203.977 360.138 203.977 360.138L222.147 369.832C234.933 370.514 247.393 374.865 258.469 382.515L264.444 386.642L268.264 407.325Z" fill="#FFB74D"/>
<path d="M467.547 686.079L458.523 688.734L454.81 679.051L452.788 690.422L428.855 697.464C427.708 697.802 426.501 697.693 425.409 697.154C424.317 696.616 423.398 695.675 422.787 694.47C422.175 693.264 421.902 691.858 422.009 690.454C422.115 689.051 422.595 687.726 423.378 686.671L439.232 665.31L437.107 655.041L457.505 650.556L467.547 686.079Z" fill="#212121"/>
<path d="M371.954 689.399L363.349 685.211L365.129 674.777L357.88 682.549L335.057 671.442C333.963 670.91 333.041 669.975 332.424 668.773C331.808 667.571 331.529 666.166 331.63 664.762C331.731 663.358 332.205 662.03 332.984 660.97C333.763 659.911 334.805 659.176 335.959 658.873L359.322 652.735L362.675 642.943L381.377 653.636L371.954 689.399Z" fill="#212121"/>
<path d="M341.988 403.92H334.939C327.359 403.91 320.092 400.315 314.732 393.924C309.373 387.534 306.358 378.869 306.349 369.832V369.365H370.578V369.832C370.569 378.869 367.554 387.534 362.195 393.924C356.835 400.315 349.568 403.91 341.988 403.92Z" fill="#E4E4E4"/>
<path d="M334.939 357.224C334.939 359.545 331.414 361.426 331.414 361.426C331.414 361.426 327.889 359.545 327.889 357.224C327.889 354.903 331.414 353.021 331.414 353.021C331.414 353.021 334.939 354.903 334.939 357.224Z" fill="#FDD835"/>
<path d="M356.087 357.224C356.087 359.545 352.563 361.426 352.563 361.426C352.563 361.426 349.038 359.545 349.038 357.224C349.038 354.903 352.563 353.021 352.563 353.021C352.563 353.021 356.087 354.903 356.087 357.224Z" fill="#FDD835"/>
<path d="M341.988 365.629C341.988 367.95 338.464 369.832 338.464 369.832C338.464 369.832 334.939 367.95 334.939 365.629C334.939 363.308 338.464 361.426 338.464 361.426C338.464 361.426 341.988 363.308 341.988 365.629Z" fill="#FDD835"/>
<path d="M317.315 348.352C319.262 348.352 320.84 346.47 320.84 344.149C320.84 341.828 319.262 339.946 317.315 339.946C315.368 339.946 313.79 341.828 313.79 344.149C313.79 346.47 315.368 348.352 317.315 348.352Z" fill="#FDD835"/>
<path d="M266.053 335.117L321.644 344.272C322.147 344.354 322.631 344.558 323.066 344.87C323.501 345.181 323.879 345.595 324.176 346.086C324.473 346.577 324.684 347.134 324.795 347.725C324.907 348.315 324.917 348.926 324.825 349.522C324.733 350.117 324.54 350.684 324.259 351.188C323.978 351.692 323.614 352.123 323.19 352.455C322.765 352.787 322.288 353.012 321.789 353.118C321.289 353.224 320.776 353.209 320.282 353.072L265.614 337.954C265.31 337.87 265.045 337.65 264.874 337.339C264.704 337.028 264.64 336.651 264.696 336.285C264.753 335.92 264.925 335.595 265.178 335.377C265.431 335.159 265.744 335.066 266.053 335.117Z" fill="#E4E4E4"/>
<path d="M333.606 126.278V0H326.557V126.278C316.925 127.326 307.969 132.628 301.448 141.145C294.926 149.661 291.31 160.776 291.309 172.308V184.916H315.982C315.982 189.374 317.468 193.65 320.112 196.803C322.756 199.955 326.342 201.726 330.081 201.726C333.821 201.726 337.407 199.955 340.051 196.803C342.695 193.65 344.18 189.374 344.18 184.916H368.854V172.308C368.852 160.776 365.236 149.661 358.715 141.145C352.193 132.628 343.238 127.326 333.606 126.278Z" fill="#212121"/>
<path d="M424.368 94.7084V0H419.081V94.7084C411.857 95.4943 405.141 99.4712 400.25 105.858C395.359 112.246 392.646 120.582 392.646 129.231V138.687H411.151C411.151 142.031 412.265 145.238 414.248 147.602C416.231 149.966 418.92 151.295 421.725 151.295C424.529 151.295 427.219 149.966 429.202 147.602C431.185 145.238 432.299 142.031 432.299 138.687H450.804V129.231C450.803 120.582 448.091 112.246 443.2 105.858C438.309 99.4712 431.592 95.4943 424.368 94.7084Z" fill="#212121"/>
<path d="M245.781 94.7084V0H240.494V94.7084C233.27 95.4943 226.553 99.4712 221.662 105.858C216.771 112.246 214.059 120.582 214.058 129.231V138.687H232.563C232.563 142.031 233.677 145.238 235.66 147.602C237.643 149.966 240.333 151.295 243.137 151.295C245.942 151.295 248.631 149.966 250.615 147.602C252.598 145.238 253.712 142.031 253.712 138.687H272.217V129.231C272.216 120.582 269.504 112.246 264.613 105.858C259.722 99.4712 253.005 95.4943 245.781 94.7084Z" fill="#212121"/>
<path d="M563.998 222.67C559.01 215.734 556.638 206.531 552.65 198.655C548.662 190.779 541.722 183.729 534.391 185.562C529.337 186.826 525.432 192.143 523.454 198.071C521.477 203.999 521.107 210.537 520.76 216.941C520.883 203.78 513.61 191.02 503.592 186.821C493.575 182.621 481.586 187.305 475.291 197.879C472.544 194.843 468.958 193.115 465.213 193.021C461.468 192.927 457.825 194.475 454.974 197.371C449.343 203.371 448.097 214.791 452.238 222.445C456.379 230.098 465.347 232.949 471.927 228.705L474.254 231.256C472.944 236.718 475.484 243.168 479.753 245.224C483.214 246.891 488.102 246.614 489.397 250.945C490.302 253.972 488.61 257.202 486.81 259.528C485.011 261.853 482.874 264.255 482.658 267.473C482.331 272.329 486.54 275.731 490.366 276.755C499.591 279.225 509.826 274.132 515.143 264.425C515.246 264.238 515.357 264.051 515.478 263.863C518.461 259.315 520.635 254.089 521.867 248.505C523.099 242.921 523.363 237.096 522.643 231.386C522.344 229.142 522.645 227.474 523.943 226.942C529.55 224.646 545.26 229.466 550.014 233.822C554.769 238.178 558.576 243.943 563.156 248.58C567.736 253.217 573.572 256.794 579.387 255.532C584.044 254.52 588.006 250.489 590.671 245.626C593.335 240.764 594.869 235.096 596.243 229.463C585.944 236.556 571.85 233.587 563.998 222.67Z" fill="#212121"/>
</g>
<path d="M0 0V2H700V0V-2H0V0Z" fill="#212121" mask="url(#path-1-inside-1_36_13)"/>
<defs>
<filter id="filter0_d_36_13" x="173.695" y="406.362" width="286.457" height="300.117" filterUnits="userSpaceOnUse" color-interpolation-filters="sRGB">
<feFlood flood-opacity="0" result="BackgroundImageFix"/>
<feColorMatrix in="SourceAlpha" type="matrix" values="0 0 0 0 0 0 0 0 0 0 0 0 0 0 0 0 0 0 127 0" result="hardAlpha"/>
<feOffset dy="4"/>
<feGaussianBlur stdDeviation="2"/>
<feComposite in2="hardAlpha" operator="out"/>
<feColorMatrix type="matrix" values="0 0 0 0 0 0 0 0 0 0 0 0 0 0 0 0 0 0 0.25 0"/>
<feBlend mode="normal" in2="BackgroundImageFix" result="effect1_dropShadow_36_13"/>
<feBlend mode="normal" in="SourceGraphic" in2="effect1_dropShadow_36_13" result="shape"/>
</filter>
<filter id="filter1_d_36_13" x="571.664" y="379.632" width="48.0812" height="328.368" filterUnits="userSpaceOnUse" color-interpolation-filters="sRGB">
<feFlood flood-opacity="0" result="BackgroundImageFix"/>
<feColorMatrix in="SourceAlpha" type="matrix" values="0 0 0 0 0 0 0 0 0 0 0 0 0 0 0 0 0 0 127 0" result="hardAlpha"/>
<feOffset dy="4"/>
<feGaussianBlur stdDeviation="2"/>
<feComposite in2="hardAlpha" operator="out"/>
<feColorMatrix type="matrix" values="0 0 0 0 0 0 0 0 0 0 0 0 0 0 0 0 0 0 0.25 0"/>
<feBlend mode="normal" in2="BackgroundImageFix" result="effect1_dropShadow_36_13"/>
<feBlend mode="normal" in="SourceGraphic" in2="effect1_dropShadow_36_13" result="shape"/>
</filter>
<filter id="filter2_d_36_13" x="480.153" y="539.338" width="19.7498" height="168.662" filterUnits="userSpaceOnUse" color-interpolation-filters="sRGB">
<feFlood flood-opacity="0" result="BackgroundImageFix"/>
<feColorMatrix in="SourceAlpha" type="matrix" values="0 0 0 0 0 0 0 0 0 0 0 0 0 0 0 0 0 0 127 0" result="hardAlpha"/>
<feOffset dy="4"/>
<feGaussianBlur stdDeviation="2"/>
<feComposite in2="hardAlpha" operator="out"/>
<feColorMatrix type="matrix" values="0 0 0 0 0 0 0 0 0 0 0 0 0 0 0 0 0 0 0.25 0"/>
<feBlend mode="normal" in2="BackgroundImageFix" result="effect1_dropShadow_36_13"/>
<feBlend mode="normal" in="SourceGraphic" in2="effect1_dropShadow_36_13" result="shape"/>
</filter>
<filter id="filter3_d_36_13" x="478.978" y="521.127" width="106.693" height="33.2158" filterUnits="userSpaceOnUse" color-interpolation-filters="sRGB">
<feFlood flood-opacity="0" result="BackgroundImageFix"/>
<feColorMatrix in="SourceAlpha" type="matrix" values="0 0 0 0 0 0 0 0 0 0 0 0 0 0 0 0 0 0 127 0" result="hardAlpha"/>
<feOffset dy="4"/>
<feGaussianBlur stdDeviation="2"/>
<feComposite in2="hardAlpha" operator="out"/>
<feColorMatrix type="matrix" values="0 0 0 0 0 0 0 0 0 0 0 0 0 0 0 0 0 0 0.25 0"/>
<feBlend mode="normal" in2="BackgroundImageFix" result="effect1_dropShadow_36_13"/>
<feBlend mode="normal" in="SourceGraphic" in2="effect1_dropShadow_36_13" result="shape"/>
</filter>
<filter id="filter4_d_36_13" x="480.153" y="581.364" width="118.442" height="22.0088" filterUnits="userSpaceOnUse" color-interpolation-filters="sRGB">
<feFlood flood-opacity="0" result="BackgroundImageFix"/>
<feColorMatrix in="SourceAlpha" type="matrix" values="0 0 0 0 0 0 0 0 0 0 0 0 0 0 0 0 0 0 127 0" result="hardAlpha"/>
<feOffset dy="4"/>
<feGaussianBlur stdDeviation="2"/>
<feComposite in2="hardAlpha" operator="out"/>
<feColorMatrix type="matrix" values="0 0 0 0 0 0 0 0 0 0 0 0 0 0 0 0 0 0 0.25 0"/>
<feBlend mode="normal" in2="BackgroundImageFix" result="effect1_dropShadow_36_13"/>
<feBlend mode="normal" in="SourceGraphic" in2="effect1_dropShadow_36_13" result="shape"/>
</filter>
<filter id="filter5_d_36_13" x="80.2573" y="354.42" width="52.3661" height="353.58" filterUnits="userSpaceOnUse" color-interpolation-filters="sRGB">
<feFlood flood-opacity="0" result="BackgroundImageFix"/>
<feColorMatrix in="SourceAlpha" type="matrix" values="0 0 0 0 0 0 0 0 0 0 0 0 0 0 0 0 0 0 127 0" result="hardAlpha"/>
<feOffset dy="4"/>
<feGaussianBlur stdDeviation="2"/>
<feComposite in2="hardAlpha" operator="out"/>
<feColorMatrix type="matrix" values="0 0 0 0 0 0 0 0 0 0 0 0 0 0 0 0 0 0 0.25 0"/>
<feBlend mode="normal" in2="BackgroundImageFix" result="effect1_dropShadow_36_13"/>
<feBlend mode="normal" in="SourceGraphic" in2="effect1_dropShadow_36_13" result="shape"/>
</filter>
<filter id="filter6_d_36_13" x="218.256" y="538.32" width="19.7492" height="169.68" filterUnits="userSpaceOnUse" color-interpolation-filters="sRGB">
<feFlood flood-opacity="0" result="BackgroundImageFix"/>
<feColorMatrix in="SourceAlpha" type="matrix" values="0 0 0 0 0 0 0 0 0 0 0 0 0 0 0 0 0 0 127 0" result="hardAlpha"/>
<feOffset dy="4"/>
<feGaussianBlur stdDeviation="2"/>
<feComposite in2="hardAlpha" operator="out"/>
<feColorMatrix type="matrix" values="0 0 0 0 0 0 0 0 0 0 0 0 0 0 0 0 0 0 0.25 0"/>
<feBlend mode="normal" in2="BackgroundImageFix" result="effect1_dropShadow_36_13"/>
<feBlend mode="normal" in="SourceGraphic" in2="effect1_dropShadow_36_13" result="shape"/>
</filter>
<filter id="filter7_d_36_13" x="104.607" y="586.713" width="133.396" height="22.0088" filterUnits="userSpaceOnUse" color-interpolation-filters="sRGB">
<feFlood flood-opacity="0" result="BackgroundImageFix"/>
<feColorMatrix in="SourceAlpha" type="matrix" values="0 0 0 0 0 0 0 0 0 0 0 0 0 0 0 0 0 0 127 0" result="hardAlpha"/>
<feOffset dy="4"/>
<feGaussianBlur stdDeviation="2"/>
<feComposite in2="hardAlpha" operator="out"/>
<feColorMatrix type="matrix" values="0 0 0 0 0 0 0 0 0 0 0 0 0 0 0 0 0 0 0.25 0"/>
<feBlend mode="normal" in2="BackgroundImageFix" result="effect1_dropShadow_36_13"/>
<feBlend mode="normal" in="SourceGraphic" in2="effect1_dropShadow_36_13" result="shape"/>
</filter>
<clipPath id="clip0_36_13">
<path d="M0 0H700V700H0V0Z" fill="white"/>
</clipPath>
</defs>
</svg>
